<svg width="20" height="20" viewBox="0 0 20 20" fill="none" xmlns="http://www.w3.org/2000/svg">
<path d="M13.6498 14.575L14.575 13.675L10.675 9.74984V4.85024H9.40001V10.2502L13.6498 14.575ZM10 19.4998C8.70001 19.4998 7.47081 19.2498 6.31241 18.7498C5.15401 18.2498 4.14561 17.5708 3.28721 16.7128C2.42921 15.8544 1.75021 14.846 1.25021 13.6876C0.750214 12.5292 0.500214 11.3 0.500214 10C0.500214 8.70004 0.750214 7.47084 1.25021 6.31244C1.75021 5.15404 2.42921 4.14584 3.28721 3.28784C4.14561 2.42944 5.15401 1.75024 6.31241 1.25024C7.47081 0.750244 8.70001 0.500244 10 0.500244C11.3 0.500244 12.5292 0.750244 13.6876 1.25024C14.846 1.75024 15.8542 2.42944 16.7122 3.28784C17.5706 4.14584 18.2498 5.15404 18.7498 6.31244C19.2498 7.47084 19.4998 8.70004 19.4998 10C19.4998 11.3 19.2498 12.5292 18.7498 13.6876C18.2498 14.846 17.5706 15.8544 16.7122 16.7128C15.8542 17.5708 14.846 18.2498 13.6876 18.7498C12.5292 19.2498 11.3 19.4998 10 19.4998ZM10 18.25C12.2668 18.25 14.2084 17.4416 15.8248 15.8248C17.4416 14.2084 18.25 12.2668 18.25 10C18.25 7.73324 17.4416 5.79164 15.8248 4.17524C14.2084 2.55844 12.2668 1.75004 10 1.75004C7.73321 1.75004 5.79161 2.55844 4.17521 4.17524C2.55841 5.79164 1.75001 7.73324 1.75001 10C1.75001 12.2668 2.55841 14.2084 4.17521 15.8248C5.79161 17.4416 7.73321 18.25 10 18.25Z" fill="#E9AF3F"/>
</svg>
