<svg width="14" height="22" viewBox="0 0 14 22" fill="none" xmlns="http://www.w3.org/2000/svg">
<path d="M7 19.5752C7.2168 19.5752 7.4002 19.5002 7.5502 19.3502C7.7002 19.2002 7.7752 19.0168 7.7752 18.8C7.7752 18.6 7.7002 18.425 7.5502 18.275C7.4002 18.125 7.2168 18.05 7 18.05C6.7832 18.05 6.5998 18.125 6.4498 18.275C6.2998 18.425 6.2248 18.6 6.2248 18.8C6.2248 19.0168 6.2998 19.2002 6.4498 19.3502C6.5998 19.5002 6.7832 19.5752 7 19.5752ZM0.500198 21.5V0.5H13.4998V21.5H0.500198ZM1.75 16.1252H12.25V4.1498H1.75V16.1252ZM1.75 20.2502H12.25V17.375H1.75V20.2502ZM1.75 2.8748H12.25V1.7498H1.75V2.8748ZM1.75 2.8748V1.7498V2.8748V2.8748ZM1.75 20.2502V17.375V20.2502Z" fill="#E9AF3F"/>
</svg>
