<svg width="18" height="20" viewBox="0 0 18 20" fill="none" xmlns="http://www.w3.org/2000/svg">
<path d="M5.8998 13.9252C5.2666 13.9252 4.7334 13.7044 4.3002 13.2628C3.8666 12.8208 3.6498 12.2832 3.6498 11.65C3.6498 11.0168 3.8708 10.4834 4.3128 10.0498C4.7544 9.61656 5.2918 9.39996 5.925 9.39996C6.5582 9.39996 7.0916 9.62076 7.5252 10.0624C7.9584 10.504 8.175 11.0416 8.175 11.6752C8.175 12.3084 7.9542 12.8416 7.5126 13.2748C7.071 13.7084 6.5334 13.9252 5.8998 13.9252ZM0.499802 19.4998V2.24976H3.75V0.374756H5.1V2.24976H12.9252V0.374756H14.25V2.24976H17.5002V19.4998H0.499802ZM1.7502 18.25H16.2498V8.17476H1.7502V18.25ZM1.7502 6.92496H16.2498V3.52476H1.7502V6.92496ZM1.7502 6.92496V3.52476V6.92496Z" fill="#E9AF3F"/>
</svg>
