<svg width="16" height="16" viewBox="0 0 16 16" fill="none" xmlns="http://www.w3.org/2000/svg">
<path d="M8 7.6748C7.0332 7.6748 6.229 7.354 5.5874 6.7124C4.9458 6.0708 4.625 5.2666 4.625 4.2998C4.625 3.3334 4.9458 2.5294 5.5874 1.8878C6.229 1.2458 7.0332 0.924805 8 0.924805C8.9668 0.924805 9.771 1.2458 10.4126 1.8878C11.0542 2.5294 11.375 3.3334 11.375 4.2998C11.375 5.2666 11.0542 6.0708 10.4126 6.7124C9.771 7.354 8.9668 7.6748 8 7.6748ZM0.5 15.3002V13.2998C0.5 12.7834 0.6376 12.321 0.9128 11.9126C1.1876 11.5042 1.5584 11.1916 2.0252 10.9748C3.0416 10.5084 4.0456 10.1544 5.0372 9.9128C6.0292 9.6708 7.0168 9.5498 8 9.5498C8.9832 9.5498 9.9666 9.6708 10.9502 9.9128C11.9334 10.1544 12.9416 10.5084 13.9748 10.9748C14.4416 11.1916 14.8124 11.5042 15.0872 11.9126C15.3624 12.321 15.5 12.7834 15.5 13.2998V15.3002H0.5ZM1.7498 14.0498H14.2502V13.2998C14.2502 13.0666 14.1752 12.8416 14.0252 12.6248C13.8752 12.4084 13.6752 12.2334 13.4252 12.0998C12.4916 11.6334 11.5832 11.3002 10.7 11.1002C9.8168 10.9002 8.9168 10.8002 8 10.8002C7.0832 10.8002 6.179 10.9002 5.2874 11.1002C4.3958 11.3002 3.4834 11.6334 2.5502 12.0998C2.3166 12.2334 2.1248 12.4084 1.9748 12.6248C1.8248 12.8416 1.7498 13.0666 1.7498 13.2998V14.0498ZM8 6.425C8.6 6.425 9.1042 6.2208 9.5126 5.8124C9.921 5.404 10.1252 4.8998 10.1252 4.2998C10.1252 3.6998 9.921 3.1958 9.5126 2.7878C9.1042 2.3794 8.6 2.1752 8 2.1752C7.4 2.1752 6.8958 2.3794 6.4874 2.7878C6.079 3.1958 5.8748 3.6998 5.8748 4.2998C5.8748 4.8998 6.079 5.404 6.4874 5.8124C6.8958 6.2208 7.4 6.425 8 6.425Z" fill="#E9AF3F"/>
</svg>
