<!-- Generated by IcoMoon.io -->
<svg version="1.1" xmlns="http://www.w3.org/2000/svg" width="32" height="32" viewBox="0 0 32 32">
<title>date</title>
<path fill="#e9af3f" d="M11.867 21.234c-0.844 0-1.555-0.294-2.133-0.883s-0.867-1.306-0.867-2.15 0.295-1.555 0.884-2.134c0.589-0.578 1.305-0.866 2.15-0.866s1.555 0.294 2.134 0.883c0.578 0.589 0.866 1.306 0.866 2.15s-0.294 1.555-0.883 2.133c-0.589 0.578-1.306 0.867-2.15 0.867zM4.667 28.666v-23h4.334v-2.5h1.8v2.5h10.434v-2.5h1.766v2.5h4.334v23h-22.667zM6.334 27h19.333v-13.434h-19.333v13.434zM6.334 11.9h19.333v-4.534h-19.333v4.534zM6.334 11.9v0z"></path>
</svg>
