<!-- Generated by IcoMoon.io -->
<svg version="1.1" xmlns="http://www.w3.org/2000/svg" width="32" height="32" viewBox="0 0 32 32">
<title>time</title>
<path fill="#e9af3f" d="M20.866 22.1l1.234-1.2-5.2-5.234v-6.533h-1.7v7.2l5.666 5.766zM16 28.666c-1.733 0-3.372-0.333-4.917-1s-2.889-1.572-4.034-2.716c-1.144-1.145-2.049-2.489-2.716-4.034s-1-3.183-1-4.917c0-1.733 0.333-3.372 1-4.917s1.572-2.889 2.716-4.033c1.145-1.145 2.489-2.050 4.034-2.717s3.183-1 4.917-1c1.733 0 3.372 0.333 4.917 1s2.889 1.572 4.033 2.717c1.145 1.144 2.050 2.488 2.717 4.033s1 3.183 1 4.917c0 1.733-0.333 3.372-1 4.917s-1.572 2.889-2.717 4.034c-1.144 1.144-2.488 2.049-4.033 2.716s-3.183 1-4.917 1zM16 27c3.022 0 5.611-1.078 7.766-3.234s3.234-4.744 3.234-7.766c0-3.022-1.078-5.611-3.234-7.766s-4.744-3.234-7.766-3.234-5.611 1.078-7.766 3.234c-2.156 2.155-3.234 4.744-3.234 7.766s1.078 5.611 3.234 7.766c2.155 2.156 4.744 3.234 7.766 3.234z"></path>
</svg>
