<svg width="24" height="24" viewBox="0 0 24 24" fill="none" xmlns="http://www.w3.org/2000/svg">
<path d="M12 2.57831C15.0482 2.57831 15.4639 2.57831 16.7108 2.57831C17.8193 2.57831 18.3735 2.85542 18.7892 2.99398C19.3434 3.27108 19.759 3.40964 20.1747 3.8253C20.5904 4.24096 20.8675 4.65663 21.006 5.21084C21.1446 5.62651 21.2831 6.18072 21.4217 7.28916C21.4217 8.53615 21.4217 8.81325 21.4217 12C21.4217 15.1867 21.4217 15.4639 21.4217 16.7108C21.4217 17.8193 21.1446 18.3735 21.006 18.7892C20.7289 19.3434 20.5904 19.759 20.1747 20.1747C19.759 20.5904 19.3434 20.8675 18.7892 21.006C18.3735 21.1446 17.8193 21.2831 16.7108 21.4217C15.4639 21.4217 15.1867 21.4217 12 21.4217C8.81325 21.4217 8.53615 21.4217 7.28916 21.4217C6.18072 21.4217 5.62651 21.1446 5.21084 21.006C4.65663 20.7289 4.24096 20.5904 3.8253 20.1747C3.40964 19.759 3.13253 19.3434 2.99398 18.7892C2.85542 18.3735 2.71687 17.8193 2.57831 16.7108C2.57831 15.4639 2.57831 15.1867 2.57831 12C2.57831 8.81325 2.57831 8.53615 2.57831 7.28916C2.57831 6.18072 2.85542 5.62651 2.99398 5.21084C3.27108 4.65663 3.40964 4.24096 3.8253 3.8253C4.24096 3.40964 4.65663 3.13253 5.21084 2.99398C5.62651 2.85542 6.18072 2.71687 7.28916 2.57831C8.53615 2.57831 8.95181 2.57831 12 2.57831ZM12 0.5C8.81325 0.5 8.53615 0.5 7.28916 0.5C6.04217 0.5 5.21084 0.777109 4.51807 1.05422C3.8253 1.33133 3.13253 1.74699 2.43976 2.43976C1.74699 3.13253 1.46988 3.68675 1.05422 4.51807C0.777109 5.21084 0.638554 6.04217 0.5 7.28916C0.5 8.53615 0.5 8.95181 0.5 12C0.5 15.1867 0.5 15.4639 0.5 16.7108C0.5 17.9578 0.777109 18.7892 1.05422 19.4819C1.33133 20.1747 1.74699 20.8675 2.43976 21.5602C3.13253 22.253 3.68675 22.5301 4.51807 22.9458C5.21084 23.2229 6.04217 23.3614 7.28916 23.5C8.53615 23.5 8.95181 23.5 12 23.5C15.0482 23.5 15.4639 23.5 16.7108 23.5C17.9578 23.5 18.7892 23.2229 19.4819 22.9458C20.1747 22.6687 20.8675 22.253 21.5602 21.5602C22.253 20.8675 22.5301 20.3133 22.9458 19.4819C23.2229 18.7892 23.3614 17.9578 23.5 16.7108C23.5 15.4639 23.5 15.0482 23.5 12C23.5 8.95181 23.5 8.53615 23.5 7.28916C23.5 6.04217 23.2229 5.21084 22.9458 4.51807C22.6687 3.8253 22.253 3.13253 21.5602 2.43976C20.8675 1.74699 20.3133 1.46988 19.4819 1.05422C18.7892 0.777109 17.9578 0.638554 16.7108 0.5C15.4639 0.5 15.1867 0.5 12 0.5Z" fill="#071E34"/>
<path d="M12 6.04217C8.6747 6.04217 6.04217 8.6747 6.04217 12C6.04217 15.3253 8.6747 17.9578 12 17.9578C15.3253 17.9578 17.9578 15.3253 17.9578 12C17.9578 8.6747 15.3253 6.04217 12 6.04217ZM12 15.8795C9.92169 15.8795 8.12048 14.2169 8.12048 12C8.12048 9.92169 9.78313 8.12048 12 8.12048C14.0783 8.12048 15.8795 9.78313 15.8795 12C15.8795 14.0783 14.0783 15.8795 12 15.8795Z" fill="#071E34"/>
<path d="M18.0964 7.28916C18.8616 7.28916 19.4819 6.66883 19.4819 5.90362C19.4819 5.1384 18.8616 4.51807 18.0964 4.51807C17.3312 4.51807 16.7108 5.1384 16.7108 5.90362C16.7108 6.66883 17.3312 7.28916 18.0964 7.28916Z" fill="#071E34"/>
</svg>
