<svg width="24" height="24" viewBox="0 0 24 24" fill="none" xmlns="http://www.w3.org/2000/svg">
<path d="M8.9 15.9252C8.2668 15.9252 7.7336 15.7044 7.3004 15.2628C6.8668 14.8208 6.65 14.2832 6.65 13.65C6.65 13.0168 6.871 12.4834 7.313 12.0498C7.7546 11.6166 8.292 11.4 8.9252 11.4C9.5584 11.4 10.0918 11.6208 10.5254 12.0624C10.9586 12.504 11.1752 13.0416 11.1752 13.6752C11.1752 14.3084 10.9544 14.8416 10.5128 15.2748C10.0712 15.7084 9.5336 15.9252 8.9 15.9252ZM3.5 21.4998V4.24976H6.7502V2.37476H8.1002V4.24976H15.9254V2.37476H17.2502V4.24976H20.5004V21.4998H3.5ZM4.7504 20.25H19.25V10.1748H4.7504V20.25ZM4.7504 8.92496H19.25V5.52476H4.7504V8.92496ZM4.7504 8.92496V5.52476V8.92496Z" fill="#E9AF3F"/>
</svg>
