<svg width="24" height="24" viewBox="0 0 24 24" fill="none" xmlns="http://www.w3.org/2000/svg">
<path d="M15.6496 16.575L16.5748 15.675L12.6748 11.7498V6.85024H11.3998V12.2502L15.6496 16.575ZM11.9998 21.4998C10.6998 21.4998 9.4706 21.2498 8.3122 20.7498C7.1538 20.2498 6.1454 19.5708 5.287 18.7128C4.429 17.8544 3.75 16.846 3.25 15.6876C2.75 14.5292 2.5 13.3 2.5 12C2.5 10.7 2.75 9.47084 3.25 8.31244C3.75 7.15404 4.429 6.14584 5.287 5.28784C6.1454 4.42944 7.1538 3.75024 8.3122 3.25024C9.4706 2.75024 10.6998 2.50024 11.9998 2.50024C13.2998 2.50024 14.529 2.75024 15.6874 3.25024C16.8458 3.75024 17.854 4.42944 18.712 5.28784C19.5704 6.14584 20.2496 7.15404 20.7496 8.31244C21.2496 9.47084 21.4996 10.7 21.4996 12C21.4996 13.3 21.2496 14.5292 20.7496 15.6876C20.2496 16.846 19.5704 17.8544 18.712 18.7128C17.854 19.5708 16.8458 20.2498 15.6874 20.7498C14.529 21.2498 13.2998 21.4998 11.9998 21.4998ZM11.9998 20.25C14.2666 20.25 16.2082 19.4416 17.8246 17.8248C19.4414 16.2084 20.2498 14.2668 20.2498 12C20.2498 9.73324 19.4414 7.79164 17.8246 6.17524C16.2082 4.55844 14.2666 3.75004 11.9998 3.75004C9.733 3.75004 7.7914 4.55844 6.175 6.17524C4.5582 7.79164 3.7498 9.73324 3.7498 12C3.7498 14.2668 4.5582 16.2084 6.175 17.8248C7.7914 19.4416 9.733 20.25 11.9998 20.25Z" fill="#E9AF3F"/>
</svg>
