<svg width="24" height="24" viewBox="0 0 24 24" fill="none" xmlns="http://www.w3.org/2000/svg">
<path d="M11.9998 20.5752C12.2166 20.5752 12.4 20.5002 12.55 20.3502C12.7 20.2002 12.775 20.0168 12.775 19.8C12.775 19.6 12.7 19.425 12.55 19.275C12.4 19.125 12.2166 19.05 11.9998 19.05C11.783 19.05 11.5996 19.125 11.4496 19.275C11.2996 19.425 11.2246 19.6 11.2246 19.8C11.2246 20.0168 11.2996 20.2002 11.4496 20.3502C11.5996 20.5002 11.783 20.5752 11.9998 20.5752ZM5.5 22.5V1.5H18.4996V22.5H5.5ZM6.7498 17.1252H17.2498V5.1498H6.7498V17.1252ZM6.7498 21.2502H17.2498V18.375H6.7498V21.2502ZM6.7498 3.8748H17.2498V2.7498H6.7498V3.8748ZM6.7498 3.8748V2.7498V3.8748ZM6.7498 21.2502V18.375V21.2502Z" fill="#E9AF3F"/>
</svg>
