<!-- Generated by IcoMoon.io -->
<svg version="1.1" xmlns="http://www.w3.org/2000/svg" width="32" height="32" viewBox="0 0 32 32">
<title>phone</title>
<path fill="#e9af3f" d="M16 27.434c0.289 0 0.534-0.1 0.734-0.3s0.3-0.445 0.3-0.734c0-0.267-0.1-0.5-0.3-0.7s-0.445-0.3-0.734-0.3c-0.289 0-0.534 0.1-0.734 0.3s-0.3 0.433-0.3 0.7c0 0.289 0.1 0.534 0.3 0.734s0.445 0.3 0.734 0.3zM7.333 30v-28h17.333v28h-17.333zM9 22.834h14v-15.967h-14v15.967zM9 28.334h14v-3.834h-14v3.834zM9 5.166h14v-1.5h-14v1.5zM9 5.166v0zM9 28.334v0z"></path>
</svg>
