<!-- Generated by IcoMoon.io -->
<svg version="1.1" xmlns="http://www.w3.org/2000/svg" width="32" height="32" viewBox="0 0 32 32">
<title>pupil</title>
<path fill="#e9af3f" d="M16 15.566c-1.289 0-2.361-0.428-3.217-1.283s-1.283-1.928-1.283-3.217c0-1.289 0.428-2.361 1.283-3.216s1.928-1.284 3.217-1.284 2.361 0.428 3.217 1.284c0.855 0.855 1.283 1.927 1.283 3.216s-0.428 2.361-1.283 3.217-1.928 1.283-3.217 1.283zM6 25.734v-2.667c0-0.689 0.183-1.305 0.55-1.85s0.861-0.961 1.483-1.25c1.355-0.622 2.694-1.094 4.016-1.416s2.639-0.484 3.95-0.484 2.622 0.161 3.934 0.484c1.311 0.322 2.655 0.794 4.033 1.416 0.622 0.289 1.117 0.706 1.483 1.25s0.55 1.161 0.55 1.85v2.667h-20zM7.666 24.066h16.667v-1c0-0.311-0.1-0.611-0.3-0.9s-0.467-0.522-0.8-0.7c-1.245-0.622-2.456-1.066-3.634-1.333s-2.378-0.4-3.6-0.4c-1.222 0-2.428 0.133-3.617 0.4s-2.405 0.711-3.65 1.333c-0.311 0.178-0.567 0.411-0.767 0.7s-0.3 0.589-0.3 0.9v1zM16 13.9c0.8 0 1.472-0.272 2.017-0.817s0.817-1.217 0.817-2.017c0-0.8-0.272-1.472-0.817-2.016s-1.217-0.817-2.017-0.817-1.472 0.272-2.017 0.817c-0.545 0.544-0.817 1.216-0.817 2.016s0.272 1.472 0.817 2.017c0.545 0.545 1.217 0.817 2.017 0.817z"></path>
</svg>
